<svg width="102.27" height="32" viewBox="0 0 388 121" fill="none" xmlns="http://www.w3.org/2000/svg">
<path d="M96.0869 0.00292657L0 95.6033L6.8079 102.377L102.895 6.77635L96.0869 0.00292657Z" fill="#181E26"/>
<path d="M32.1895 15.9653C32.1895 24.7882 25.0108 31.9306 16.143 31.9306C7.27515 31.9306 0.0964407 24.7882 0.0964407 15.9653C0.0119853 7.14236 7.19069 0 16.143 0C25.0108 0 32.1895 7.14236 32.1895 15.9653Z" fill="#181E26"/>
<path d="M172.217 103.69C161.66 103.69 154.312 97.5562 154.312 88.7333C154.312 76.8854 166.812 73.1042 188.432 70.6673V69.9111C188.432 60.2479 182.521 58.2312 177.538 58.2312C170.95 58.2312 166.896 61.6764 166.559 67.7264V68.2305H156.677L156.762 67.6423C157.691 56.2146 167.91 50.2486 177.538 50.2486C184.548 50.2486 189.615 51.9292 192.993 55.2903C196.456 58.8194 198.145 64.1132 198.145 71.5076L198.06 83.1035C197.976 91.0021 198.398 96.968 199.327 101.926L199.412 102.598H189.699L189.615 102.178C189.361 100.665 189.193 99.0687 189.024 96.884C185.561 101.422 180.071 103.69 172.217 103.69ZM189.108 78.3979C173.737 79.9944 164.869 82.1792 164.869 88.4812C164.869 93.0187 168.417 95.8757 174.075 95.8757C179.649 95.8757 189.108 93.943 189.108 80.9187V78.3979Z" fill="#181E26"/>
<path d="M234.46 103.69C227.535 103.69 222.045 101.085 218.498 96.2118V102.514H208.87V33.7792H218.498V57.8111C222.045 52.9375 227.535 50.3327 234.46 50.3327C245.101 50.3327 256.587 58.6514 256.587 76.9695C256.587 95.2875 245.101 103.69 234.46 103.69ZM232.264 58.7354C225.423 58.7354 218.076 63.525 218.076 77.0535C218.076 90.582 225.423 95.3715 232.264 95.3715C240.794 95.3715 246.115 88.3972 246.115 77.0535C246.199 65.7097 240.879 58.7354 232.264 58.7354Z" fill="#181E26"/>
<path d="M290.369 103.606C283.444 103.606 277.954 101.001 274.407 96.1278V102.43H264.779V33.7792H274.407V57.8111C277.954 52.9375 283.444 50.3326 290.369 50.3326C301.011 50.3326 312.497 58.6514 312.497 76.9695C312.497 95.2875 301.011 103.606 290.369 103.606ZM288.258 58.7354C281.417 58.7354 274.069 63.525 274.069 77.0535C274.069 90.582 281.417 95.3715 288.258 95.3715C296.788 95.3715 302.109 88.3972 302.109 77.0535C302.109 65.7097 296.788 58.7354 288.258 58.7354Z" fill="#181E26"/>
<path d="M330.486 33.7792H320.858V102.43H330.486V33.7792Z" fill="#181E26"/>
<path d="M364.099 103.69C348.728 103.69 338.847 93.1868 338.847 76.9695C338.847 61.3403 349.15 50.4167 363.845 50.4167C370.686 50.4167 376.598 52.8535 380.905 57.559C385.973 62.9368 388.506 71.0035 387.915 79.7424V80.2466H349.15C349.741 90.4979 357.342 95.2035 364.099 95.2035C370.686 95.2035 375.078 92.5986 377.358 87.2209L377.527 86.8848H387.409L387.24 87.557C384.622 97.3042 375.5 103.69 364.099 103.69ZM377.781 71.8438C377.358 65.4577 372.375 58.7354 363.845 58.7354C355.484 58.7354 350.079 63.609 349.235 71.8438H377.781Z" fill="#181E26"/>
<path d="M114.195 121L123.486 98.4806L102.963 51.257H113.52L128.3 86.8847L141.981 51.257H152.2L124.246 121H114.195Z" fill="#181E26"/>
</svg>

