<svg width="102.27" height="32" viewBox="0 0 388 121" fill="none" xmlns="http://www.w3.org/2000/svg">
<path d="M96.0869 0.00295553L0 96.0956L6.8079 102.904L102.895 6.81126L96.0869 0.00295553Z" fill="white"/>
<path d="M32.1895 16.0475C32.1895 24.9158 25.0108 32.095 16.143 32.095C7.27515 32.095 0.0964407 24.9158 0.0964407 16.0475C0.0119853 7.17914 7.19069 0 16.143 0C25.0108 0 32.1895 7.17914 32.1895 16.0475Z" fill="white"/>
<path d="M172.217 104.224C161.66 104.224 154.312 98.0586 154.312 89.1903C154.312 77.2814 166.812 73.4806 188.432 71.0313V70.2711C188.432 60.5582 182.521 58.5311 177.538 58.5311C170.95 58.5311 166.896 61.994 166.559 68.0752V68.5819H156.677L156.762 67.9907C157.691 56.5041 167.91 50.5074 177.538 50.5074C184.548 50.5074 189.615 52.1966 192.993 55.575C196.456 59.1224 198.145 64.4434 198.145 71.8759L198.06 83.5314C197.976 91.4707 198.398 97.4674 199.327 102.451L199.412 103.126H189.699L189.615 102.704C189.361 101.184 189.193 99.5789 189.024 97.3829C185.561 101.944 180.071 104.224 172.217 104.224ZM189.108 78.8016C173.737 80.4064 164.869 82.6024 164.869 88.9369C164.869 93.4978 168.417 96.3694 174.075 96.3694C179.649 96.3694 189.108 94.4268 189.108 81.3355V78.8016Z" fill="white"/>
<path d="M234.46 104.224C227.535 104.224 222.045 101.606 218.498 96.7073V103.042H208.87V33.9531H218.498V58.1088C222.045 53.2101 227.535 50.5918 234.46 50.5918C245.101 50.5918 256.587 58.9534 256.587 77.3658C256.587 95.7782 245.101 104.224 234.46 104.224ZM232.264 59.0379C225.423 59.0379 218.076 63.8521 218.076 77.4503C218.076 91.0484 225.423 95.8627 232.264 95.8627C240.794 95.8627 246.115 88.8524 246.115 77.4503C246.199 66.0481 240.879 59.0379 232.264 59.0379Z" fill="white"/>
<path d="M290.369 104.14C283.444 104.14 277.954 101.521 274.407 96.6228V102.957H264.779V33.9531H274.407V58.1088C277.954 53.2101 283.444 50.5918 290.369 50.5918C301.011 50.5918 312.497 58.9534 312.497 77.3658C312.497 95.7782 301.011 104.14 290.369 104.14ZM288.258 59.0379C281.417 59.0379 274.069 63.8521 274.069 77.4503C274.069 91.0484 281.417 95.8627 288.258 95.8627C296.788 95.8627 302.109 88.8524 302.109 77.4503C302.109 66.0481 296.788 59.0379 288.258 59.0379Z" fill="white"/>
<path d="M330.486 33.9531H320.858V102.957H330.486V33.9531Z" fill="white"/>
<path d="M364.099 104.224C348.728 104.224 338.847 93.6666 338.847 77.3658C338.847 61.6561 349.15 50.6763 363.845 50.6763C370.686 50.6763 376.598 53.1256 380.905 57.8554C385.973 63.2609 388.506 71.3691 387.915 80.153V80.6597H349.15C349.741 90.9639 357.342 95.6937 364.099 95.6937C370.686 95.6937 375.078 93.0754 377.358 87.67L377.527 87.3321H387.409L387.24 88.0078C384.622 97.8052 375.5 104.224 364.099 104.224ZM377.781 72.2137C377.358 65.7947 372.375 59.0379 363.845 59.0379C355.484 59.0379 350.079 63.9366 349.235 72.2137H377.781Z" fill="white"/>
<path d="M114.195 121.623L123.486 98.9877L102.963 51.5209H113.52L128.3 87.3321L141.981 51.5209H152.2L124.246 121.623H114.195Z" fill="white"/>
</svg>
