<svg width="24" height="24" viewBox="0 0 24 24" fill="none" xmlns="http://www.w3.org/2000/svg">
<circle cx="12" cy="12" r="7.5" stroke="#D62E2E"/>
<path fillRule="evenodd" clipRule="evenodd" d="M15.8669 8.89866C16.0625 8.70436 16.0713 8.38016 15.8864 8.17455C15.7014 7.96894 15.3929 7.95978 15.1973 8.15409L12.0076 11.3216L8.84172 8.16556C8.64641 7.97086 8.33783 7.97935 8.1525 8.18454C7.96716 8.38973 7.97525 8.71391 8.17056 8.90861L11.2979 12.0263L8.166 15.1365C7.97033 15.3308 7.96161 15.655 8.14653 15.8606C8.33144 16.0662 8.63996 16.0754 8.83563 15.8811L12.0063 12.7325L15.1636 15.88C15.3589 16.0747 15.6675 16.0662 15.8528 15.861C16.0381 15.6558 16.0301 15.3317 15.8347 15.1369L12.7159 12.0278L15.8669 8.89866Z" fill="#D62E2E"/>
</svg>
