<svg width="13" height="13" viewBox="0 0 13 13" fill="#2C6CED" xmlns="http://www.w3.org/2000/svg">
<path stroke="none" fillRule="evenodd" clipRule="evenodd" d="M11.1417 7.2896C11.1434 7.56574 11.3686 7.79093 11.6447 7.79259C11.9209 7.79424 12.1434 7.57172 12.1417 7.29558L12.1021 0.784229C12.1583 0.655949 12.1575 0.508986 12.0997 0.381248L12.0977 0.0436821L11.5977 0.0406923L4.79424 9.13111e-06C4.5181 -0.00164212 4.29561 0.220873 4.29728 0.49701C4.29896 0.773148 4.52417 0.998339 4.80031 0.999991L10.4801 1.03395L0.147002 11.2888C-0.0490007 11.4833 -0.0490007 11.7987 0.147002 11.9932C0.343005 12.1878 0.660788 12.1878 0.856791 11.9932L11.1085 1.81917L11.1417 7.2896Z" fill="#2C6CED"/>
</svg>
